<svg version="1.1"
	 xmlns="http://www.w3.org/2000/svg" xmlns:xlink="http://www.w3.org/1999/xlink" xmlns:a="http://ns.adobe.com/AdobeSVGViewerExtensions/3.0/"
	 x="0px" y="0px" width="42px" height="42px" viewBox="0 0 42 42" style="enable-background:new 0 0 42 42;" xml:space="preserve">
<defs>
	<style type="text/css">
		.st0 {
			stroke: currentColor;
			fill: none;
			storke-width: 1px;
			fill: currentColor;
		}
	</style>
</defs>
<path class="st0" d="M20.8,0C9.3,0,0,9.3,0,20.8c0,11.5,9.3,20.8,20.8,20.8s20.8-9.3,20.8-20.8C41.6,9.3,32.3,0,20.8,0L20.8,0z M20.8,40
	C10.2,40,1.6,31.4,1.6,20.8c0-10.6,8.6-19.2,19.2-19.2S40,10.2,40,20.8C40,31.4,31.4,40,20.8,40L20.8,40z M20.8,40"/>
<path class="st0" d="M20.8,29.6c-0.4,0-0.8,0.4-0.8,0.8V32c0,0.4,0.4,0.8,0.8,0.8c0.4,0,0.8-0.4,0.8-0.8v-1.6C21.6,30,21.2,29.6,20.8,29.6
	L20.8,29.6z M20.8,29.6"/>
<path class="st0" d="M20.9,7.2C20.9,7.2,20.8,7.2,20.9,7.2c-1.8,0-3.4,0.7-4.6,1.8c-1.2,1.2-1.9,2.8-1.9,4.6c0,0.4,0.4,0.8,0.8,0.8
	c0.4,0,0.8-0.4,0.8-0.8c0-1.3,0.5-2.5,1.4-3.4c0.9-0.9,2.1-1.4,3.4-1.4c2.5,0,4.7,2.2,4.7,4.7c0,1.7-0.8,3.2-2.2,4.1
	C21.3,19,20,21.4,20,24.1v2.3c0,0.4,0.4,0.8,0.8,0.8c0.4,0,0.8-0.4,0.8-0.8v-2.3c0-2.1,1-4.1,2.7-5.1c1.9-1.2,3-3.3,2.9-5.5
	C27.2,10.1,24.3,7.3,20.9,7.2L20.9,7.2z M20.9,7.2"/>
</svg>
