<svg version="1.1"
	 xmlns="http://www.w3.org/2000/svg" xmlns:xlink="http://www.w3.org/1999/xlink" xmlns:a="http://ns.adobe.com/AdobeSVGViewerExtensions/3.0/"
	 x="0px" y="0px" width="44px" height="44px" viewBox="0 0 44 44" style="enable-background:new 0 0 44 44;" xml:space="preserve">
<defs>
	<style>
		.cls {
			stroke: currentColor;
			fill: none;
			stroke-width: 2px;
		}
	</style>
</defs>
<path class="cls" d="M40.977,16.801h-4.043c-0.648,0-1.184-0.36-1.434-0.957c-0.246-0.602-0.121-1.235,0.336-1.692l2.859-2.859
	c0.418-0.418,0.648-0.977,0.648-1.57c0-0.594-0.23-1.153-0.648-1.575l-3.645-3.644c-0.84-0.84-2.305-0.84-3.145,0l-2.859,2.859
	c-0.457,0.457-1.09,0.586-1.688,0.336c-0.602-0.25-0.961-0.785-0.961-1.433V2.223C26.398,0.996,25.402,0,24.176,0h-5.153
	c-1.226,0-2.222,0.996-2.222,2.223v4.043c0,0.648-0.36,1.183-0.957,1.433c-0.602,0.25-1.235,0.121-1.692-0.336l-2.859-2.859
	c-0.84-0.84-2.305-0.84-3.145,0L4.504,8.148C4.086,8.566,3.855,9.129,3.855,9.723c0,0.593,0.231,1.152,0.649,1.57l2.859,2.859
	c0.457,0.457,0.582,1.09,0.336,1.692c-0.246,0.597-0.785,0.957-1.433,0.957H2.223C0.996,16.801,0,17.797,0,19.023v5.153
	c0,1.227,0.996,2.223,2.223,2.223h4.043c0.648,0,1.183,0.359,1.433,0.961c0.25,0.598,0.121,1.23-0.336,1.688l-2.859,2.859
	c-0.418,0.418-0.649,0.98-0.649,1.571c0,0.597,0.231,1.155,0.649,1.573l3.644,3.645c0.84,0.84,2.305,0.84,3.145,0l2.859-2.859
	c0.457-0.457,1.09-0.582,1.692-0.336c0.597,0.25,0.957,0.785,0.957,1.435v4.043c0,1.226,0.996,2.222,2.222,2.222h5.153
	c1.227,0,2.223-0.996,2.223-2.222v-4.043c0-0.649,0.359-1.185,0.957-1.435c0.602-0.25,1.234-0.121,1.691,0.336l2.859,2.859
	c0.84,0.84,2.305,0.84,3.145,0l3.645-3.645c0.418-0.418,0.648-0.977,0.648-1.573c0-0.591-0.23-1.149-0.648-1.571l-2.859-2.859
	c-0.457-0.457-0.582-1.09-0.336-1.688c0.246-0.602,0.785-0.961,1.434-0.961h4.043c1.227,0,2.223-0.996,2.223-2.223v-5.153
	C43.199,17.797,42.203,16.801,40.977,16.801L40.977,16.801z M41.602,24.176c0,0.345-0.281,0.625-0.625,0.625h-4.043
	c-1.297,0-2.414,0.746-2.91,1.945c-0.5,1.199-0.238,2.516,0.684,3.435l2.854,2.858c0.247,0.242,0.247,0.637,0,0.883l-3.64,3.641
	c-0.246,0.243-0.641,0.247-0.883,0l-2.859-2.855c-0.918-0.922-2.234-1.18-3.434-0.684c-1.199,0.497-1.945,1.614-1.945,2.911v4.043
	c0,0.343-0.281,0.625-0.625,0.625h-5.153c-0.343,0-0.625-0.282-0.625-0.625v-4.043c0-1.297-0.742-2.414-1.945-2.911
	c-0.402-0.168-0.816-0.25-1.226-0.25c-0.809,0-1.598,0.32-2.207,0.93l-2.856,2.859c-0.246,0.247-0.641,0.243-0.887,0l-3.64-3.641
	c-0.242-0.246-0.242-0.641,0-0.887l2.859-2.854c0.918-0.919,1.18-2.235,0.68-3.435c-0.496-1.199-1.61-1.945-2.91-1.945H2.223
	c-0.344,0-0.621-0.28-0.621-0.625v-5.153c0-0.343,0.277-0.625,0.621-0.625h4.043c1.3,0,2.414-0.742,2.91-1.945
	c0.5-1.199,0.238-2.516-0.68-3.433l-2.859-2.856c-0.242-0.246-0.242-0.641,0-0.887l3.64-3.64c0.246-0.242,0.641-0.242,0.887,0
	l2.856,2.855c0.918,0.918,2.234,1.184,3.433,0.684c1.203-0.496,1.945-1.61,1.945-2.91V2.223c0-0.344,0.282-0.621,0.625-0.621h5.153
	c0.344,0,0.625,0.277,0.625,0.621v4.043c0,1.3,0.746,2.414,1.945,2.91c1.199,0.5,2.516,0.238,3.434-0.68l2.859-2.859
	c0.242-0.242,0.641-0.242,0.883,0l3.64,3.644c0.247,0.242,0.247,0.641,0,0.883l-2.854,2.856c-0.918,0.917-1.184,2.234-0.684,3.437
	c0.496,1.199,1.613,1.945,2.91,1.945h4.043c0.344-0.004,0.625,0.278,0.625,0.621V24.176z M41.602,24.176"/>
<path class="cls" d="M21.602,14.398c-3.973,0-7.204,3.231-7.204,7.204c0,3.968,3.231,7.199,7.204,7.199c3.968,0,7.199-3.23,7.199-7.199
	C28.801,17.629,25.57,14.398,21.602,14.398L21.602,14.398z M21.602,27.199c-3.09,0-5.602-2.512-5.602-5.597
	C16,18.512,18.512,16,21.602,16c3.085,0,5.597,2.512,5.597,5.602C27.199,24.688,24.688,27.199,21.602,27.199L21.602,27.199z
	 M21.602,27.199"/>
</svg>
